<?xml version="1.0" encoding="UTF-8" standalone="no"?> <!-- Created with Vectornator for iOS (http://vectornator.io/) --><!DOCTYPE svg PUBLIC "-//W3C//DTD SVG 1.1//EN" "http://www.w3.org/Graphics/SVG/1.1/DTD/svg11.dtd">
<svg style="fill-rule:evenodd;clip-rule:evenodd;stroke-linecap:round;stroke-linejoin:round;" xmlns:vectornator="http://vectornator.io" xmlns:xlink="http://www.w3.org/1999/xlink" xmlns="http://www.w3.org/2000/svg" xml:space="preserve" version="1.1" viewBox="0 0 100 24.0036">
<metadata>
<vectornator:setting key="DynamicGuides" value="1"/>
<vectornator:setting key="Units" value="Points"/>
<vectornator:setting key="GuidesVisible" value="1"/>
<vectornator:setting key="RulersVisible" value="1"/>
<vectornator:setting key="SnapToGuides" value="1"/>
<vectornator:setting key="GridSpacing" value="36"/>
</metadata>
<defs/>
<g id="horizontalContainerlessSvgTemplate" vectornator:layerName="horizontalContainerlessSvgTemplate">
<g opacity="1">
<g opacity="1">
<path d="M27.5072+15.0772L27.5072+7.73159C26.9918+8.02295+26.3894+8.23307+25.7002+8.36194C25.0111+8.49081+24.123+8.56645+23.036+8.58886L23.036+8.95867C23.4394+8.95867+23.7392+9.00069+23.9353+9.08474C24.1314+9.16878+24.2715+9.33687+24.3555+9.58901C24.4396+9.84115+24.4816+10.2362+24.4816+10.7741L24.4816+14.9091C24.4816+15.4246+24.3611+15.7832+24.1202+15.9849C23.8792+16.1866+23.5178+16.2875+23.036+16.2875L23.036+16.6405L23.5234+16.6237C24.8682+16.5901+25.7367+16.5733+26.1289+16.5733C26.4651+16.5733+27.2383+16.5957+28.4486+16.6405L28.4486+16.2875C28.1012+16.2875+27.8574+16.2007+27.7174+16.027C27.5773+15.8533+27.5072+15.5367+27.5072+15.0772Z" fill-rule="evenodd" fill="#455e47" opacity="1"/>
<path d="M36.3893+13.9174C35.8514+14.6682+35.1734+15.0436+34.3554+15.0436C33.8175+15.0436+33.3608+14.8139+32.9854+14.3544C32.61+13.895+32.4223+13.1274+32.4223+12.0516C32.4223+11.7826+32.4279+11.5809+32.4391+11.4464L36.7759+11.4464C36.7759+8.93625+35.7169+7.68116+33.599+7.68116C32.2991+7.68116+31.2541+8.06497+30.464+8.8326C29.674+9.60022+29.279+10.7517+29.279+12.2869C29.279+13.8894+29.632+15.0548+30.338+15.7832C31.044+16.5116+31.9853+16.8758+33.1619+16.8758C34.0808+16.8758+34.8345+16.5957+35.4228+16.0354C36.0111+15.4751+36.4285+14.8027+36.6751+14.0183L36.3893+13.9174ZM32.3719+11.1271C32.484+9.08754+32.8538+8.06777+33.4813+8.06777C33.7727+8.06777+33.9884+8.35353+34.1285+8.92505C34.2685+9.49656+34.333+10.2306+34.3218+11.1271L32.3719+11.1271Z" fill-rule="evenodd" fill="#455e47" opacity="1"/>
<path d="M42.0692+7.82404C41.6826+7.72879+41.2708+7.68116+40.8337+7.68116C40.2734+7.68116+39.7523+7.77922+39.2705+7.97532C38.7886+8.17143+38.402+8.45439+38.1106+8.82419C37.8193+9.194+37.6736+9.61983+37.6736+10.1017C37.6736+10.5163+37.7604+10.8945+37.9341+11.2363C38.1078+11.5781+38.3179+11.8779+38.5645+12.1356C38.811+12.3934+39.1696+12.7408+39.6403+13.1778C40.0549+13.5476+40.3547+13.8306+40.5396+14.0267C40.7245+14.2228+40.8813+14.4441+41.0102+14.6906C41.1391+14.9372+41.2035+15.2173+41.2035+15.5311C41.2035+15.8337+41.1111+16.0634+40.9262+16.2203C40.7413+16.3772+40.5087+16.4556+40.2286+16.4556C39.6347+16.4556+39.1416+16.1754+38.7494+15.6151C38.3572+15.0548+38.1106+14.3152+38.0098+13.3963L37.6736+13.3963C37.6736+14.9988+37.6512+16.1194+37.6063+16.7582L37.9425+16.7582C38.0434+16.3659+38.2003+16.1698+38.4132+16.1698C38.5365+16.1698+38.6597+16.1923+38.783+16.2371C38.9063+16.2819+39.0631+16.3547+39.2537+16.4556C39.7019+16.7358+40.279+16.8758+40.985+16.8758C41.6013+16.8758+42.1701+16.7666+42.6911+16.548C43.2122+16.3295+43.6241+16.0214+43.9266+15.6235C44.2292+15.2257+44.3805+14.7803+44.3805+14.2872C44.3805+13.7045+44.2348+13.2142+43.9434+12.8164C43.6521+12.4186+43.1926+11.9619+42.5651+11.4464C42.2625+11.1999+42.1+11.071+42.0776+11.0598C41.5509+10.6452+41.1643+10.295+40.9178+10.0092C40.6712+9.72349+40.548+9.39571+40.548+9.0259C40.548+8.73454+40.6432+8.50482+40.8337+8.33672C41.0242+8.16863+41.2596+8.08458+41.5397+8.08458C42.1673+8.08458+42.6463+8.33952+42.9769+8.84941C43.3075+9.35929+43.5176+9.98403+43.6073+10.7236L43.9434+10.7236C43.9434+9.28925+43.9658+8.28069+44.0107+7.69797L43.6745+7.69797C43.6297+8.05657+43.4896+8.23587+43.2543+8.23587C43.1758+8.23587+43.075+8.20225+42.9517+8.13501C42.75+8.02295+42.4558+7.91929+42.0692+7.82404Z" fill-rule="evenodd" fill="#455e47" opacity="1"/>
<path d="M53.5649+8.75695C53.027+8.03976+52.321+7.68116+51.4469+7.68116C50.2591+7.68116+49.4074+8.10139+48.8919+8.94186L48.8919+7.7484C48.1075+7.90529+47.1325+7.98373+45.9671+7.98373C45.6197+7.98373+45.2723+7.96692+44.9249+7.9333L44.9249+8.2863C45.2723+8.2863+45.516+8.40396+45.6561+8.63929C45.7962+8.87462+45.8662+9.25003+45.8662+9.76551L45.8662+18.1197C45.8662+18.5792+45.7962+18.8957+45.6561+19.0694C45.516+19.2431+45.2723+19.33+44.9249+19.33L44.9249+19.683C46.1352+19.6382+46.9084+19.6157+47.2446+19.6157C47.6368+19.6157+48.5053+19.6325+49.85+19.6662L50.3375+19.683L50.3375+19.33C49.8556+19.33+49.4942+19.2291+49.2533+19.0274C49.0124+18.8257+48.8919+18.4671+48.8919+17.9516L48.8919+16.5565C49.2841+16.7694+49.8052+16.8758+50.4552+16.8758C51.6318+16.8758+52.5787+16.492+53.2959+15.7244C54.0131+14.9568+54.3717+13.6821+54.3717+11.9003C54.3717+10.5219+54.1028+9.47415+53.5649+8.75695ZM50.8166+15.3714C50.542+16.0382+50.0966+16.3716+49.4802+16.3716C49.2337+16.3716+49.0376+16.3267+48.8919+16.2371L48.8919+9.76551C48.8919+9.41812+49.0124+9.12956+49.2533+8.89983C49.4942+8.67011+49.7772+8.55524+50.1022+8.55524C50.4496+8.55524+50.7241+8.8326+50.9258+9.3873C51.1275+9.94201+51.2284+10.9085+51.2284+12.2869C51.2284+13.6765+51.0911+14.7046+50.8166+15.3714Z" fill-rule="evenodd" fill="#455e47" opacity="1"/>
<path d="M62.3209+8.18544C62.0799+7.84925+61.6849+7.68116+61.1358+7.68116C60.1161+7.68116+59.3933+8.10139+58.9674+8.94186L58.9674+7.73159C58.183+7.88848+57.208+7.96692+56.0426+7.96692C55.7064+7.96692+55.359+7.95011+55.0004+7.91649L55.0004+8.26949C55.3478+8.26949+55.5916+8.38715+55.7316+8.62248C55.8717+8.85781+55.9418+9.23322+55.9418+9.7487L55.9418+15.0772C55.9418+15.5367+55.8717+15.8533+55.7316+16.027C55.5916+16.2007+55.3478+16.2875+55.0004+16.2875L55.0004+16.6405C55.1461+16.6405+55.2638+16.6349+55.3534+16.6237C56.5637+16.5901+57.3425+16.5733+57.6899+16.5733C58.0821+16.5733+58.8666+16.5901+60.0432+16.6237C60.1441+16.6349+60.2673+16.6405+60.413+16.6405L60.413+16.2875C59.8863+16.2875+59.5137+16.1895+59.2952+15.9933C59.0767+15.7972+58.9674+15.4358+58.9674+14.9091L58.9674+9.86637C58.9674+9.54139+59.0627+9.24162+59.2532+8.96707C59.4437+8.69252+59.679+8.49361+59.9592+8.37034C60.1161+8.2919+60.2953+8.25268+60.4971+8.25268C59.9255+8.63369+59.6398+9.15477+59.6398+9.81594C59.6398+10.1857+59.7687+10.4799+60.0264+10.6984C60.2841+10.9169+60.6539+11.0262+61.1358+11.0262C61.5953+11.0262+61.9679+10.8777+62.2536+10.5808C62.5394+10.2838+62.6823+9.88318+62.6823+9.3789C62.6823+8.91944+62.5618+8.52162+62.3209+8.18544Z" fill-rule="evenodd" fill="#455e47" opacity="1"/>
<path d="M70.1019+13.9174C69.564+14.6682+68.8861+15.0436+68.068+15.0436C67.5301+15.0436+67.0735+14.8139+66.698+14.3544C66.3226+13.895+66.1349+13.1274+66.1349+12.0516C66.1349+11.7826+66.1405+11.5809+66.1517+11.4464L70.4885+11.4464C70.4885+8.93625+69.4296+7.68116+67.3116+7.68116C66.0117+7.68116+64.9667+8.06497+64.1767+8.8326C63.3866+9.60022+62.9916+10.7517+62.9916+12.2869C62.9916+13.8894+63.3446+15.0548+64.0506+15.7832C64.7566+16.5116+65.6979+16.8758+66.8745+16.8758C67.7934+16.8758+68.5471+16.5957+69.1354+16.0354C69.7237+15.4751+70.1411+14.8027+70.3877+14.0183L70.1019+13.9174ZM66.0845+11.1271C66.1966+9.08754+66.5664+8.06777+67.1939+8.06777C67.4853+8.06777+67.701+8.35353+67.8411+8.92505C67.9812+9.49656+68.0456+10.2306+68.0344+11.1271L66.0845+11.1271Z" fill-rule="evenodd" fill="#455e47" opacity="1"/>
<path d="M75.7818+7.82404C75.3952+7.72879+74.9834+7.68116+74.5463+7.68116C73.986+7.68116+73.4649+7.77922+72.9831+7.97532C72.5012+8.17143+72.1146+8.45439+71.8232+8.82419C71.5319+9.194+71.3862+9.61983+71.3862+10.1017C71.3862+10.5163+71.473+10.8945+71.6467+11.2363C71.8204+11.5781+72.0306+11.8779+72.2771+12.1356C72.5236+12.3934+72.8822+12.7408+73.3529+13.1778C73.7675+13.5476+74.0673+13.8306+74.2522+14.0267C74.4371+14.2228+74.594+14.4441+74.7228+14.6906C74.8517+14.9372+74.9161+15.2173+74.9161+15.5311C74.9161+15.8337+74.8237+16.0634+74.6388+16.2203C74.4539+16.3772+74.2214+16.4556+73.9412+16.4556C73.3473+16.4556+72.8542+16.1754+72.462+15.6151C72.0698+15.0548+71.8232+14.3152+71.7224+13.3963L71.3862+13.3963C71.3862+14.9988+71.3638+16.1194+71.319+16.7582L71.6551+16.7582C71.756+16.3659+71.9129+16.1698+72.1258+16.1698C72.2491+16.1698+72.3723+16.1923+72.4956+16.2371C72.6189+16.2819+72.7758+16.3547+72.9663+16.4556C73.4145+16.7358+73.9916+16.8758+74.6976+16.8758C75.314+16.8758+75.8827+16.7666+76.4038+16.548C76.9249+16.3295+77.3367+16.0214+77.6392+15.6235C77.9418+15.2257+78.0931+14.7803+78.0931+14.2872C78.0931+13.7045+77.9474+13.2142+77.6561+12.8164C77.3647+12.4186+76.9052+11.9619+76.2777+11.4464C75.9751+11.1999+75.8126+11.071+75.7902+11.0598C75.2635+10.6452+74.8769+10.295+74.6304+10.0092C74.3839+9.72349+74.2606+9.39571+74.2606+9.0259C74.2606+8.73454+74.3558+8.50482+74.5463+8.33672C74.7368+8.16863+74.9722+8.08458+75.2523+8.08458C75.8799+8.08458+76.3589+8.33952+76.6895+8.84941C77.0201+9.35929+77.2302+9.98403+77.3199+10.7236L77.6561+10.7236C77.6561+9.28925+77.6785+8.28069+77.7233+7.69797L77.3871+7.69797C77.3423+8.05657+77.2022+8.23587+76.9669+8.23587C76.8884+8.23587+76.7876+8.20225+76.6643+8.13501C76.4626+8.02295+76.1684+7.91929+75.7818+7.82404Z" fill-rule="evenodd" fill="#455e47" opacity="1"/>
<path d="M83.4536+7.82404C83.067+7.72879+82.6552+7.68116+82.2181+7.68116C81.6578+7.68116+81.1367+7.77922+80.6549+7.97532C80.173+8.17143+79.7864+8.45439+79.495+8.82419C79.2037+9.194+79.058+9.61983+79.058+10.1017C79.058+10.5163+79.1448+10.8945+79.3185+11.2363C79.4922+11.5781+79.7023+11.8779+79.9489+12.1356C80.1954+12.3934+80.554+12.7408+81.0247+13.1778C81.4393+13.5476+81.7391+13.8306+81.924+14.0267C82.1089+14.2228+82.2658+14.4441+82.3946+14.6906C82.5235+14.9372+82.5879+15.2173+82.5879+15.5311C82.5879+15.8337+82.4955+16.0634+82.3106+16.2203C82.1257+16.3772+81.8932+16.4556+81.613+16.4556C81.0191+16.4556+80.526+16.1754+80.1338+15.6151C79.7416+15.0548+79.495+14.3152+79.3942+13.3963L79.058+13.3963C79.058+14.9988+79.0356+16.1194+78.9908+16.7582L79.3269+16.7582C79.4278+16.3659+79.5847+16.1698+79.7976+16.1698C79.9209+16.1698+80.0441+16.1923+80.1674+16.2371C80.2907+16.2819+80.4476+16.3547+80.6381+16.4556C81.0863+16.7358+81.6634+16.8758+82.3694+16.8758C82.9858+16.8758+83.5545+16.7666+84.0756+16.548C84.5966+16.3295+85.0085+16.0214+85.311+15.6235C85.6136+15.2257+85.7649+14.7803+85.7649+14.2872C85.7649+13.7045+85.6192+13.2142+85.3278+12.8164C85.0365+12.4186+84.577+11.9619+83.9495+11.4464C83.6469+11.1999+83.4844+11.071+83.462+11.0598C82.9353+10.6452+82.5487+10.295+82.3022+10.0092C82.0556+9.72349+81.9324+9.39571+81.9324+9.0259C81.9324+8.73454+82.0276+8.50482+82.2181+8.33672C82.4086+8.16863+82.644+8.08458+82.9241+8.08458C83.5517+8.08458+84.0307+8.33952+84.3613+8.84941C84.6919+9.35929+84.902+9.98403+84.9917+10.7236L85.3278+10.7236C85.3278+9.28925+85.3503+8.28069+85.3951+7.69797L85.0589+7.69797C85.0141+8.05657+84.874+8.23587+84.6387+8.23587C84.5602+8.23587+84.4594+8.20225+84.3361+8.13501C84.1344+8.02295+83.8402+7.91929+83.4536+7.82404Z" fill-rule="evenodd" fill="#455e47" opacity="1"/>
<path d="M94.0416+8.76536C93.2908+8.04256+92.2262+7.68116+90.8478+7.68116C89.4695+7.68116+88.4049+8.04256+87.6541+8.76536C86.9032+9.48816+86.5278+10.662+86.5278+12.2869C86.5278+13.9118+86.9032+15.0828+87.6541+15.8C88.4049+16.5172+89.4695+16.8758+90.8478+16.8758C92.2262+16.8758+93.2908+16.5172+94.0416+15.8C94.7924+15.0828+95.1678+13.9118+95.1678+12.2869C95.1678+10.662+94.7924+9.48816+94.0416+8.76536ZM89.9905+9.07633C90.2035+8.37034+90.4892+8.01735+90.8478+8.01735C91.2064+8.01735+91.4922+8.37034+91.7051+9.07633C91.918+9.78232+92.0245+10.8525+92.0245+12.2869C92.0245+13.7213+91.918+14.7887+91.7051+15.4891C91.4922+16.1895+91.2064+16.5396+90.8478+16.5396C90.4892+16.5396+90.2035+16.1895+89.9905+15.4891C89.7776+14.7887+89.6712+13.7213+89.6712+12.2869C89.6712+10.8525+89.7776+9.78232+89.9905+9.07633Z" fill-rule="evenodd" fill="#455e47" opacity="1"/>
</g>
<path d="M12.0529+19.2225C8.07134+19.2225+4.83215+15.9832+4.83215+12.0019C4.83215+8.02025+8.07134+4.7811+12.0529+4.7811C16.0344+4.7811+19.2735+8.02039+19.2735+12.0019C19.2735+15.9832+16.0343+19.2225+12.0529+19.2225Z" fill-rule="evenodd" fill="#455e47" opacity="1"/>
</g>
</g>
</svg>
